<svg width="21" height="19" viewBox="0 0 21 19" fill="none" xmlns="http://www.w3.org/2000/svg">
<path fill-rule="evenodd" clip-rule="evenodd" d="M1.99962 9.5C1.99962 4.25329 6.25291 0 11.4996 0C16.7463 0 20.9996 4.25329 20.9996 9.5C20.9996 14.7467 16.7463 19 11.4996 19C10.298 19 9.14622 18.7764 8.08527 18.3677C7.99432 18.3326 7.94163 18.3124 7.90279 18.2984C7.89803 18.2967 7.89392 18.2953 7.89042 18.2941C7.88915 18.2941 7.88779 18.2942 7.88634 18.2944C7.85472 18.2968 7.81156 18.3012 7.72901 18.3097L2.60798 18.8391C2.59672 18.8402 2.58542 18.8414 2.5741 18.8426C2.35992 18.8648 2.13647 18.8879 1.94958 18.8901C1.76383 18.8923 1.42904 18.8818 1.10804 18.6859C0.731756 18.4564 0.47547 18.073 0.407249 17.6376C0.349048 17.2661 0.467331 16.9527 0.540356 16.7819C0.613828 16.61 0.720645 16.4124 0.823037 16.223L2.4749 13.1655C2.54636 13.0332 2.58456 12.962 2.61026 12.909C2.61161 12.9063 2.61286 12.9036 2.61401 12.9012C2.61209 12.8943 2.60975 12.8861 2.60693 12.8766C2.58528 12.8033 2.55197 12.7039 2.49537 12.536C2.17361 11.5814 1.99962 10.56 1.99962 9.5ZM11.4996 2C7.35748 2 3.99962 5.35786 3.99962 9.5C3.99962 10.34 4.13733 11.1458 4.39061 11.8972C4.39865 11.9211 4.40695 11.9455 4.41541 11.9703C4.49656 12.2089 4.59187 12.489 4.61193 12.7425C4.63022 12.9736 4.61355 13.169 4.55638 13.3936C4.49386 13.6393 4.36679 13.8729 4.26373 14.0623C4.25374 14.0807 4.24398 14.0986 4.23452 14.1161L2.77872 16.8108L7.52336 16.3203C7.53413 16.3192 7.54517 16.318 7.55648 16.3169C7.67548 16.3044 7.82296 16.2889 7.96769 16.2944C8.09997 16.2995 8.21144 16.3143 8.34043 16.344C8.48203 16.3767 8.63565 16.4361 8.7652 16.4863C8.77849 16.4914 8.79153 16.4965 8.80427 16.5014C9.63944 16.8231 10.5477 17 11.4996 17C15.6418 17 18.9996 13.6421 18.9996 9.5C18.9996 5.35786 15.6418 2 11.4996 2ZM11.496 5.62384C10.284 4.80638 8.6379 4.70947 7.32431 5.81798C5.7914 7.11156 5.55905 9.31239 6.78262 10.8674C7.39661 11.6478 8.84872 12.9841 9.79408 13.8316L9.81602 13.8512C9.97472 13.9936 10.135 14.1372 10.2837 14.2501C10.4524 14.3782 10.6579 14.508 10.9202 14.5869C11.2912 14.6986 11.7019 14.6986 12.0729 14.5869C12.3352 14.508 12.5407 14.3782 12.7094 14.2501C12.8581 14.1372 13.0184 13.9935 13.1771 13.8512L13.199 13.8316C14.1444 12.9841 15.5965 11.6478 16.2105 10.8674C17.425 9.32381 17.2346 7.10321 15.6583 5.8093C14.3366 4.72431 12.7057 4.80686 11.496 5.62384ZM10.7406 7.60392C10.1366 6.90646 9.25366 6.80681 8.61416 7.34647C7.89252 7.95545 7.80746 8.93559 8.3544 9.6307C8.83729 10.2444 10.1383 11.4542 11.1291 12.3423C11.3188 12.5124 11.4173 12.5997 11.4929 12.6571C11.4941 12.658 11.4953 12.6589 11.4965 12.6598C11.4977 12.6589 11.499 12.658 11.5002 12.6571C11.5757 12.5997 11.6743 12.5124 11.864 12.3423C12.8548 11.4542 14.1558 10.2444 14.6387 9.6307C15.1946 8.92417 15.1064 7.94378 14.3894 7.35516C13.7201 6.8058 12.849 6.91509 12.2525 7.60392C12.0625 7.82324 11.7867 7.94925 11.4965 7.94925C11.2064 7.94925 10.9306 7.82324 10.7406 7.60392Z" fill="#0086C9"/>
</svg>
