<svg width="20" height="20" viewBox="0 0 20 20" fill="none" xmlns="http://www.w3.org/2000/svg">
<path fill-rule="evenodd" clip-rule="evenodd" d="M0 4C0 1.79086 1.79086 0 4 0C6.20914 0 8 1.79086 8 4V6H12V4C12 1.79086 13.7909 0 16 0C18.2091 0 20 1.79086 20 4C20 6.20914 18.2091 8 16 8H14V12H16C18.2091 12 20 13.7909 20 16C20 18.2091 18.2091 20 16 20C13.7909 20 12 18.2091 12 16V14H8V16C8 18.2091 6.20914 20 4 20C1.79086 20 0 18.2091 0 16C0 13.7909 1.79086 12 4 12H6V8H4C1.79086 8 0 6.20914 0 4ZM6 6V4C6 2.89543 5.10457 2 4 2C2.89543 2 2 2.89543 2 4C2 5.10457 2.89543 6 4 6H6ZM8 8V12H12V8H8ZM6 14H4C2.89543 14 2 14.8954 2 16C2 17.1046 2.89543 18 4 18C5.10457 18 6 17.1046 6 16V14ZM14 14V16C14 17.1046 14.8954 18 16 18C17.1046 18 18 17.1046 18 16C18 14.8954 17.1046 14 16 14H14ZM14 6H16C17.1046 6 18 5.10457 18 4C18 2.89543 17.1046 2 16 2C14.8954 2 14 2.89543 14 4V6Z" fill="#0086C9"/>
</svg>
