<svg width="21" height="19" viewBox="0 0 21 19" fill="none" xmlns="http://www.w3.org/2000/svg">
<path fill-rule="evenodd" clip-rule="evenodd" d="M1.99962 9.5C1.99962 4.25329 6.25291 0 11.4996 0C16.7463 0 20.9996 4.25329 20.9996 9.5C20.9996 14.7467 16.7463 19 11.4996 19C10.298 19 9.14622 18.7764 8.08527 18.3677C7.99432 18.3326 7.94163 18.3124 7.90279 18.2984C7.89803 18.2967 7.89392 18.2953 7.89042 18.2941C7.88915 18.2941 7.88779 18.2942 7.88634 18.2944C7.85472 18.2968 7.81156 18.3012 7.72901 18.3097L2.60798 18.8391C2.59672 18.8402 2.58542 18.8414 2.5741 18.8426C2.35992 18.8648 2.13647 18.8879 1.94958 18.8901C1.76383 18.8923 1.42904 18.8818 1.10804 18.6859C0.731756 18.4564 0.47547 18.073 0.407249 17.6376C0.349048 17.2661 0.467331 16.9527 0.540356 16.7819C0.613828 16.61 0.720645 16.4124 0.823037 16.223L2.4749 13.1655C2.54636 13.0332 2.58456 12.962 2.61026 12.909C2.61161 12.9063 2.61286 12.9036 2.61401 12.9012C2.61209 12.8943 2.60975 12.8861 2.60693 12.8766C2.58528 12.8033 2.55197 12.7039 2.49537 12.536C2.17361 11.5814 1.99962 10.56 1.99962 9.5ZM11.4996 2C7.35748 2 3.99962 5.35786 3.99962 9.5C3.99962 10.34 4.13733 11.1458 4.39061 11.8972C4.39865 11.9211 4.40695 11.9455 4.41541 11.9703C4.49656 12.2089 4.59187 12.489 4.61193 12.7425C4.63022 12.9736 4.61355 13.169 4.55638 13.3936C4.49386 13.6393 4.36679 13.8729 4.26373 14.0623C4.25374 14.0807 4.24398 14.0986 4.23452 14.1161L2.77872 16.8108L7.52336 16.3203C7.53413 16.3192 7.54517 16.318 7.55648 16.3169C7.67548 16.3044 7.82296 16.2889 7.96769 16.2944C8.09997 16.2995 8.21144 16.3143 8.34043 16.344C8.48203 16.3767 8.63565 16.4361 8.7652 16.4863C8.77849 16.4914 8.79153 16.4965 8.80427 16.5014C9.63944 16.8231 10.5477 17 11.4996 17C15.6418 17 18.9996 13.6421 18.9996 9.5C18.9996 5.35786 15.6418 2 11.4996 2ZM7.24962 7C7.24962 6.17157 7.92119 5.5 8.74962 5.5C9.57805 5.5 10.2496 6.17157 10.2496 7C10.2496 7.82843 9.57805 8.5 8.74962 8.5C7.92119 8.5 7.24962 7.82843 7.24962 7ZM12.7496 7C12.7496 6.17157 13.4212 5.5 14.2496 5.5C15.078 5.5 15.7496 6.17157 15.7496 7C15.7496 7.82843 15.078 8.5 14.2496 8.5C13.4212 8.5 12.7496 7.82843 12.7496 7ZM8.75119 11.3403C8.7515 11.3407 8.75088 11.34 8.75119 11.3403ZM7.99962 12C7.24704 12.6585 7.24731 12.6588 7.24759 12.6591L7.24942 12.6612L7.25231 12.6645L7.25961 12.6727L7.28029 12.6953C7.29675 12.7132 7.31862 12.7363 7.34578 12.7641C7.40004 12.8195 7.47579 12.8935 7.57222 12.9797C7.76447 13.1517 8.0426 13.3756 8.4003 13.5986C9.11435 14.0437 10.171 14.5 11.4996 14.5C12.8283 14.5 13.8849 14.0437 14.5989 13.5986C14.9566 13.3756 15.2348 13.1517 15.427 12.9797C15.5235 12.8935 15.5992 12.8195 15.6535 12.7641C15.6806 12.7363 15.7025 12.7132 15.719 12.6953L15.7396 12.6727L15.7469 12.6645L15.7498 12.6612L15.7511 12.6598C15.7513 12.6595 15.7522 12.6585 14.9996 12L15.7522 12.6585C16.1159 12.2429 16.0738 11.6111 15.6581 11.2474C15.2442 10.8852 14.6158 10.9255 14.2515 11.3365C14.2521 11.3358 14.2517 11.3362 14.2515 11.3365L14.2504 11.3377C14.2466 11.3418 14.2374 11.3516 14.2244 11.3648C14.1984 11.3914 14.1545 11.4346 14.0937 11.489C13.9715 11.5983 13.7848 11.7494 13.5409 11.9014C13.0519 12.2063 12.3585 12.5 11.4996 12.5C10.6408 12.5 9.94738 12.2063 9.45831 11.9014C9.21445 11.7494 9.02774 11.5983 8.90554 11.489C8.84474 11.4346 8.80086 11.3914 8.7748 11.3648C8.7618 11.3516 8.75333 11.3425 8.7495 11.3384L8.74729 11.3359C8.38292 10.925 7.75505 10.8852 7.34111 11.2474C6.92548 11.6111 6.88391 12.2435 7.24759 12.6591L7.99962 12ZM8.75029 11.3393L8.7495 11.3384C8.74871 11.3375 8.74768 11.3364 8.74729 11.3359M14.2515 11.3365C14.2511 11.3369 14.2512 11.3369 14.2504 11.3377L14.2489 11.3393L14.248 11.3403C14.2493 11.3389 14.2502 11.3379 14.2515 11.3365Z" fill="#0086C9"/>
</svg>
