<svg width="22" height="21" viewBox="0 0 22 21" fill="none" xmlns="http://www.w3.org/2000/svg">
<path fill-rule="evenodd" clip-rule="evenodd" d="M13.5 0C14.0523 0 14.5 0.447715 14.5 1V2.5C14.5 3.05228 14.0523 3.5 13.5 3.5C12.9477 3.5 12.5 3.05228 12.5 2.5V1C12.5 0.447715 12.9477 0 13.5 0ZM5.75871 1H9C9.55229 1 10 1.44772 10 2C10 2.55228 9.55229 3 9 3H5.8C4.94342 3 4.36113 3.00078 3.91104 3.03755C3.47263 3.07337 3.24842 3.1383 3.09202 3.21799C2.7157 3.40973 2.40974 3.71569 2.21799 4.09202C2.1383 4.24842 2.07338 4.47262 2.03756 4.91104C2.00078 5.36113 2 5.94342 2 6.8V11.459C2.32957 11.4861 2.66307 11.5 3 11.5C6.3057 11.5 9.2994 10.164 11.4707 8H10C9.44772 8 9 7.55228 9 7C9 6.44772 9.44772 6 10 6H13.6078C13.6163 5.99989 13.6248 5.99989 13.6333 6H14C14.5523 6 15 6.44772 15 7V11C15 11.5523 14.5523 12 14 12C13.4477 12 13 11.5523 13 11V9.29786C10.4599 11.8899 6.91798 13.5 3 13.5C2.6639 13.5 2.33043 13.4881 2 13.4648V15.2C2 16.0566 2.00078 16.6389 2.03756 17.089C2.07338 17.5274 2.1383 17.7516 2.21799 17.908C2.40974 18.2843 2.7157 18.5903 3.09202 18.782C3.24842 18.8617 3.47263 18.9266 3.91104 18.9624C4.36113 18.9992 4.94342 19 5.8 19H14.2C15.0566 19 15.6389 18.9992 16.089 18.9624C16.5274 18.9266 16.7516 18.8617 16.908 18.782C17.2843 18.5903 17.5903 18.2843 17.782 17.908C17.8617 17.7516 17.9266 17.5274 17.9625 17.089C17.9992 16.6389 18 16.0566 18 15.2V12C18 11.4477 18.4477 11 19 11C19.5523 11 20 11.4477 20 12V15.2413C20 16.0463 20 16.7106 19.9558 17.2518C19.9099 17.8139 19.8113 18.3306 19.564 18.816C19.1805 19.5686 18.5686 20.1805 17.816 20.564C17.3306 20.8113 16.8139 20.9099 16.2518 20.9558C15.7106 21 15.0463 21 14.2413 21H5.75868C4.95372 21 4.28937 21 3.74818 20.9558C3.18608 20.9099 2.66938 20.8113 2.18404 20.564C1.43139 20.1805 0.819472 19.5686 0.435978 18.816C0.188687 18.3306 0.0901229 17.8139 0.0441977 17.2518C-1.96099e-05 16.7106 -9.11928e-06 16.0463 3.63612e-06 15.2413L4.11295e-06 12.3651C-0.000183999 12.354 -0.000184953 12.3428 4.11295e-06 12.3315L3.63612e-06 6.7587C-9.11928e-06 5.95373 -1.96099e-05 5.28937 0.0441977 4.74817C0.0901229 4.18608 0.188687 3.66937 0.435978 3.18404C0.819471 2.43139 1.43139 1.81947 2.18404 1.43597C2.66938 1.18868 3.18608 1.09012 3.74818 1.04419C4.28937 0.999976 4.95374 0.999987 5.75871 1ZM19.2071 1.79289C19.5976 2.18342 19.5976 2.81658 19.2071 3.20711L18.1465 4.26777C17.7559 4.65829 17.1228 4.65829 16.7322 4.26777C16.3417 3.87724 16.3417 3.24408 16.7322 2.85355L17.7929 1.79289C18.1834 1.40237 18.8166 1.40237 19.2071 1.79289ZM17.5103 7.5C17.5103 6.94772 17.958 6.5 18.5103 6.5H20.0103C20.5625 6.5 21.0103 6.94772 21.0103 7.5C21.0103 8.05228 20.5625 8.5 20.0103 8.5H18.5103C17.958 8.5 17.5103 8.05228 17.5103 7.5Z" fill="#0086C9"/>
</svg>
