<svg width="22" height="21" viewBox="0 0 22 21" fill="none" xmlns="http://www.w3.org/2000/svg">
<path fill-rule="evenodd" clip-rule="evenodd" d="M4.16146 0.500001H11.8385C12.3657 0.499983 12.8205 0.499967 13.195 0.530571C13.5904 0.562872 13.9836 0.634188 14.362 0.826982C14.9265 1.1146 15.3854 1.57354 15.673 2.13803C15.8658 2.51641 15.9371 2.90963 15.9694 3.30497C16 3.67955 16 4.13432 16 4.66148V5.5H17.3373C17.3538 5.5 17.3709 5.49996 17.3883 5.49991C17.5782 5.4994 17.8173 5.49876 18.0527 5.55526C18.2568 5.60426 18.4518 5.68507 18.6308 5.79472C18.8371 5.92117 19.0058 6.09072 19.1397 6.22537C19.152 6.23773 19.164 6.24981 19.1757 6.26152L21.2385 8.32427C21.2502 8.33599 21.2623 8.348 21.2746 8.3603C21.4093 8.49422 21.5788 8.66287 21.7053 8.86922C21.8149 9.04816 21.8957 9.24325 21.9447 9.44732C22.0012 9.68266 22.0006 9.9218 22.0001 10.1117C22 10.1292 22 10.1462 22 10.1627L22 12.9319C22 13.1843 22.0001 13.4301 21.9831 13.6382C21.9644 13.8668 21.9203 14.1366 21.782 14.408C21.5903 14.7843 21.2843 15.0903 20.908 15.282C20.6366 15.4203 20.3668 15.4644 20.1382 15.4831C19.9944 15.4948 19.8325 15.4984 19.663 15.4995C19.8791 15.9543 20 16.463 20 17C20 18.933 18.433 20.5 16.5 20.5C14.567 20.5 13 18.933 13 17C13 16.4632 13.1208 15.9546 13.3368 15.5H8.66319C8.87916 15.9546 9 16.4632 9 17C9 18.933 7.433 20.5 5.5 20.5C3.56701 20.5 2 18.933 2 17C2 16.4296 2.13643 15.8911 2.37844 15.4154C2.12779 15.3698 1.87988 15.2962 1.63803 15.173C1.07354 14.8854 0.614602 14.4265 0.326982 13.862C0.134188 13.4836 0.0628723 13.0904 0.0305712 12.695C-3.25181e-05 12.3205 -1.70213e-05 11.8657 8.6011e-07 11.3385V4.66146C-1.70213e-05 4.13431 -3.25181e-05 3.67955 0.0305712 3.30497C0.0628723 2.90963 0.134188 2.51641 0.326982 2.13803C0.614602 1.57354 1.07354 1.1146 1.63803 0.826982C2.01641 0.634188 2.40963 0.562872 2.80497 0.530571C3.17955 0.499967 3.63431 0.499983 4.16146 0.500001ZM5.5 15.5C4.67157 15.5 4 16.1716 4 17C4 17.8284 4.67157 18.5 5.5 18.5C6.32843 18.5 7 17.8284 7 17C7 16.1716 6.32843 15.5 5.5 15.5ZM14 13.5V4.7C14 4.12345 13.9992 3.75118 13.9761 3.46784C13.9539 3.19617 13.9162 3.09546 13.891 3.04601C13.7951 2.85785 13.6422 2.70487 13.454 2.609C13.4045 2.5838 13.3038 2.54612 13.0322 2.52393C12.7488 2.50078 12.3766 2.5 11.8 2.5H4.2C3.62345 2.5 3.25118 2.50078 2.96784 2.52393C2.69617 2.54612 2.59546 2.5838 2.54601 2.609C2.35785 2.70487 2.20487 2.85785 2.109 3.04601C2.0838 3.09546 2.04612 3.19617 2.02393 3.46784C2.00078 3.75117 2 4.12345 2 4.7V11.3C2 11.8766 2.00078 12.2488 2.02393 12.5322C2.04612 12.8038 2.0838 12.9045 2.109 12.954C2.20487 13.1422 2.35785 13.2951 2.54601 13.391C2.59546 13.4162 2.69617 13.4539 2.96784 13.4761C3.25117 13.4992 3.62345 13.5 4.2 13.5H14ZM16 7.5V13.5H19.4C19.6965 13.5 19.8588 13.4992 19.9754 13.4897C19.98 13.4893 19.9844 13.4889 19.9886 13.4885C19.9889 13.4844 19.9893 13.48 19.9897 13.4754C19.9992 13.3588 20 13.1965 20 12.9V10.1627C20 10.0317 19.9998 9.96636 19.9976 9.91887C19.9975 9.91763 19.9975 9.91643 19.9974 9.91528C19.9966 9.91443 19.9958 9.91355 19.995 9.91263C19.963 9.87751 19.9169 9.83111 19.8243 9.73848L17.7615 7.67574C17.6689 7.58311 17.6225 7.53704 17.5874 7.505C17.5865 7.50416 17.5856 7.50335 17.5847 7.50258C17.5836 7.50253 17.5824 7.50247 17.5811 7.50241C17.5336 7.50024 17.4683 7.5 17.3373 7.5H16ZM16.5 15.5C15.6716 15.5 15 16.1716 15 17C15 17.8284 15.6716 18.5 16.5 18.5C17.3284 18.5 18 17.8284 18 17C18 16.1716 17.3284 15.5 16.5 15.5Z" fill="#344054"/>
</svg>
