<svg width="20" height="20" viewBox="0 0 20 20" fill="none" xmlns="http://www.w3.org/2000/svg">
<path fill-rule="evenodd" clip-rule="evenodd" d="M4.16146 8.6011e-07H15.8385C16.3657 -1.70213e-05 16.8205 -3.25181e-05 17.195 0.0305713C17.5904 0.0628723 17.9836 0.134188 18.362 0.326982C18.9265 0.614602 19.3854 1.07354 19.673 1.63803C19.8658 2.01641 19.9371 2.40963 19.9694 2.80497C20 3.17954 20 3.6343 20 4.16144V15.8386C20 16.3657 20 16.8205 19.9694 17.195C19.9371 17.5904 19.8658 17.9836 19.673 18.362C19.3854 18.9265 18.9265 19.3854 18.362 19.673C17.9836 19.8658 17.5904 19.9371 17.195 19.9694C16.8205 20 16.3657 20 15.8386 20H4.16144C3.6343 20 3.17954 20 2.80497 19.9694C2.40963 19.9371 2.01641 19.8658 1.63803 19.673C1.07355 19.3854 0.614603 18.9265 0.326982 18.362C0.134188 17.9836 0.0628723 17.5904 0.0305712 17.195C-3.25181e-05 16.8205 -1.70213e-05 16.3657 8.6011e-07 15.8385V4.16146C-1.70213e-05 3.63431 -3.25181e-05 3.17955 0.0305712 2.80497C0.0628723 2.40963 0.134188 2.01641 0.326982 1.63803C0.614602 1.07354 1.07354 0.614602 1.63803 0.326982C2.01641 0.134188 2.40963 0.0628723 2.80497 0.0305712C3.17955 -3.25181e-05 3.63431 -1.70213e-05 4.16146 8.6011e-07ZM2 8.46487V15.8C2 16.3766 2.00078 16.7488 2.02393 17.0322C2.04612 17.3038 2.0838 17.4045 2.109 17.454C2.20487 17.6422 2.35785 17.7951 2.54601 17.891C2.59546 17.9162 2.69617 17.9539 2.96784 17.9761C3.25117 17.9992 3.62345 18 4.2 18H6L6 13.5681C5.99997 13.3157 5.99994 13.0699 6.01695 12.8618C6.03562 12.6332 6.07969 12.3634 6.21799 12.092C6.40974 11.7157 6.7157 11.4097 7.09202 11.218C7.36344 11.0797 7.63318 11.0356 7.86177 11.0169C8.06994 10.9999 8.31573 11 8.56812 11H11.4319C11.6843 11 11.9301 10.9999 12.1382 11.0169C12.3668 11.0356 12.6366 11.0797 12.908 11.218C13.2843 11.4097 13.5903 11.7157 13.782 12.092C13.9203 12.3634 13.9644 12.6332 13.9831 12.8618C14.0001 13.0699 14 13.3157 14 13.5681L14 18H15.8C16.3766 18 16.7488 17.9992 17.0322 17.9761C17.3038 17.9539 17.4045 17.9162 17.454 17.891C17.6422 17.7951 17.7951 17.6422 17.891 17.454C17.9162 17.4045 17.9539 17.3038 17.9761 17.0322C17.9992 16.7488 18 16.3766 18 15.8V8.46487C17.4117 8.80521 16.7286 9 16 9C14.8053 9 13.7329 8.47625 13 7.64583C12.2671 8.47625 11.1947 9 10 9C8.80531 9 7.73295 8.47625 7 7.64582C6.26706 8.47625 5.19469 9 4 9C3.27143 9 2.58835 8.80521 2 8.46487ZM8 5C8 6.10457 8.89543 7 10 7C11.1046 7 12 6.10457 12 5C12 4.44772 12.4477 4 13 4C13.5523 4 14 4.44772 14 5C14 6.10457 14.8954 7 16 7C17.1046 7 18 6.10457 18 5V4.2C18 3.62345 17.9992 3.25118 17.9761 2.96784C17.9539 2.69617 17.9162 2.59546 17.891 2.54601C17.7951 2.35785 17.6422 2.20487 17.454 2.109C17.4045 2.0838 17.3038 2.04612 17.0322 2.02393C16.7488 2.00078 16.3766 2 15.8 2H4.2C3.62345 2 3.25117 2.00078 2.96784 2.02393C2.69617 2.04612 2.59546 2.0838 2.54601 2.109C2.35785 2.20487 2.20487 2.35785 2.109 2.54601C2.0838 2.59546 2.04612 2.69617 2.02393 2.96784C2.00078 3.25117 2 3.62345 2 4.2V5C2 6.10457 2.89543 7 4 7C5.10457 7 6 6.10457 6 5C6 4.44772 6.44772 4 7 4C7.55229 4 8 4.44772 8 5ZM12 18V13.6C12 13.3035 11.9992 13.1412 11.9897 13.0246C11.9893 13.02 11.9889 13.0156 11.9886 13.0115C11.9844 13.0111 11.98 13.0107 11.9754 13.0103C11.8588 13.0008 11.6965 13 11.4 13H8.6C8.30348 13 8.14122 13.0008 8.02464 13.0103C8.01999 13.0107 8.0156 13.0111 8.01145 13.0115C8.01107 13.0156 8.01068 13.02 8.0103 13.0246C8.00078 13.1412 8 13.3035 8 13.6V18H12Z" fill="#0086C9"/>
</svg>
