<svg width="23" height="20" viewBox="0 0 23 20" fill="none" xmlns="http://www.w3.org/2000/svg">
<path fill-rule="evenodd" clip-rule="evenodd" d="M16.3676 0.0700901C16.7947 0.238913 17.0519 0.676988 16.9912 1.13225L16.1422 7.50008L19.9799 7.50008C20.2007 7.50003 20.4295 7.49998 20.6185 7.51726C20.8044 7.53425 21.1426 7.5793 21.4449 7.81263C21.7975 8.08474 22.0109 8.49945 22.0274 8.9445C22.0415 9.32613 21.8816 9.62752 21.7874 9.78868C21.6916 9.9525 21.5586 10.1386 21.4302 10.3182L14.8137 19.5813C14.5468 19.9551 14.0596 20.0989 13.6324 19.9301C13.2053 19.7613 12.9481 19.3232 13.0088 18.8679L13.8578 12.5001H10.0546C10.0431 12.5001 10.0316 12.5001 10.0201 12.5001C9.79931 12.5001 9.57052 12.5002 9.38154 12.4829C9.19563 12.4659 8.85743 12.4209 8.55511 12.1875C8.20255 11.9154 7.98913 11.5007 7.97262 11.0557C7.95847 10.674 8.1184 10.3726 8.21263 10.2115C8.30841 10.0477 8.44144 9.86152 8.56978 9.68192C8.57648 9.67255 8.58316 9.66319 8.58983 9.65385L15.1863 0.418846C15.4532 0.0451069 15.9404 -0.0987332 16.3676 0.0700901ZM10.4432 10.5001H15C15.2883 10.5001 15.5625 10.6245 15.7524 10.8414C15.9423 11.0582 16.0293 11.3465 15.9912 11.6322L15.5224 15.1482L19.5568 9.50008H15C14.7117 9.50008 14.4375 9.37569 14.2476 9.15881C14.0577 8.94193 13.9707 8.65365 14.0088 8.36792L14.4776 4.85195L10.4432 10.5001ZM2 4.50008C2 3.9478 2.44772 3.50008 3 3.50008H8C8.55228 3.50008 9 3.9478 9 4.50008C9 5.05237 8.55228 5.50008 8 5.50008H3C2.44772 5.50008 2 5.05237 2 4.50008ZM0 10.0001C0 9.4478 0.447715 9.00008 1 9.00008H5.5C6.05228 9.00008 6.5 9.4478 6.5 10.0001C6.5 10.5524 6.05228 11.0001 5.5 11.0001H1C0.447715 11.0001 0 10.5524 0 10.0001ZM1.5 15.5001C1.5 14.9478 1.94772 14.5001 2.5 14.5001H8C8.55228 14.5001 9 14.9478 9 15.5001C9 16.0524 8.55228 16.5001 8 16.5001H2.5C1.94772 16.5001 1.5 16.0524 1.5 15.5001Z" fill="black"/>
</svg>
